<?xml version="1.0" ?><svg enable-background="new 0 0 164.3715 208.904" id="apple" version="1.1" viewBox="0 0 164.3715 208.904" xml:space="preserve" xmlns="http://www.w3.org/2000/svg" xmlns:xlink="http://www.w3.org/1999/xlink"><g><path d="M124.9439,4.2184L124.7211,0l-4.1992,0.4528c-0.41,0.0432-41.0095,4.9376-43.7928,50.3244L76.4499,55.32l4.5428-0.3085   C81.4575,54.9804,127.4359,51.3104,124.9439,4.2184z M117.0179,9.2888C116.2524,36.6424,94.9751,44.25,85.2075,46.3024   C88.9263,19.7184,108.2035,11.6208,117.0179,9.2888z"/><path d="M164.0707,150.068l-2.5564-0.826c-15.4668-5-25.8576-19.17-25.8576-35.258c0-14.3125,8.0936-27.1132,21.1232-33.408   l3.8868-1.8768l-2.168-3.7328c-0.93-1.6012-9.6056-15.7732-27.932-20.4629c-14.5368-3.7203-30.8808-0.4295-48.5976,9.7873   c-7.498-4.5528-32.412-17.674-52.2304-4.5216c-3.8788,2.1448-45.002,26.7796-23.5996,93.254   c0.6288,1.4883,15.5528,36.4532,33.2128,49.5468c4.764,4.5528,16.9492,10.2404,30.8712,0.748   c2.412-0.994,18.5528-7.2068,28.7933,0.0664c3.7791,2.588,10.3807,5.5196,17.3531,5.5196c5.2872,0,10.7892-1.6856,15.4356-6.4845   c2.168-1.8767,21.9708-19.5527,32.2656-47.5507l0.3008-0.8164L164.0707,150.068z M126.4635,196.4608l-0.3088,0.2907   c-8.7732,9.2133-22.0703,0.4005-22.5644,0.0725c-5.2304-3.7188-11.2928-4.9316-16.9764-4.9316   c-10.3164,0-19.3868,3.994-19.9668,4.256l-0.6524,0.3688c-12.0743,8.428-20.344,1.014-21.2208,0.168l-0.4708-0.404   c-15.9724-11.6484-30.6504-46.0297-30.6716-46.0412C-6.4017,87.9684,31.9731,67.6012,33.6039,66.7712l0.4416-0.2576   c18.588-12.4804,45.3064,5.5819,45.572,5.7656l2.1312,1.4628l2.2068-1.334c16.6409-10.0584,31.6564-13.4784,44.6272-10.1544   c10.5664,2.7032,17.3044,9.3068,20.5996,13.3672c-13.3868,8.2052-21.5256,22.5196-21.5256,38.3632   c0,18.2228,10.9416,34.416,27.6096,41.4612C145.0084,180.488,126.6567,196.2968,126.4635,196.4608z"/></g></svg>